<?xml version="1.0" encoding="UTF-8" standalone="no"?>
<!-- Created with Inkscape (http://www.inkscape.org/) -->

<svg
   width="252mm"
   height="252mm"
   viewBox="0 0 252 252"
   version="1.1"
   id="svg5"
   xml:space="preserve"
   inkscape:version="1.2.2 (732a01da63, 2022-12-09)"
   sodipodi:docname="anadirAnimalLogo.svg"
   inkscape:export-filename="anadirAnimalLogo.png"
   inkscape:export-xdpi="51.505558"
   inkscape:export-ydpi="51.505558"
   xmlns:inkscape="http://www.inkscape.org/namespaces/inkscape"
   xmlns:sodipodi="http://sodipodi.sourceforge.net/DTD/sodipodi-0.dtd"
   xmlns="http://www.w3.org/2000/svg"
   xmlns:svg="http://www.w3.org/2000/svg"><sodipodi:namedview
     id="namedview7"
     pagecolor="#ffffff"
     bordercolor="#000000"
     borderopacity="0.25"
     inkscape:showpageshadow="2"
     inkscape:pageopacity="0.0"
     inkscape:pagecheckerboard="0"
     inkscape:deskcolor="#d1d1d1"
     inkscape:document-units="mm"
     showgrid="false"
     inkscape:zoom="0.46769781"
     inkscape:cx="583.71024"
     inkscape:cy="504.59933"
     inkscape:window-width="1366"
     inkscape:window-height="705"
     inkscape:window-x="-8"
     inkscape:window-y="-8"
     inkscape:window-maximized="1"
     inkscape:current-layer="svg5" /><defs
     id="defs2" /><g
     inkscape:label="Capa 1"
     inkscape:groupmode="layer"
     id="layer1"><path
       style="fill:#f2f2f2;fill-opacity:1;stroke-width:0.264583"
       d="m 43.202203,192.80983 -11.600592,2.00011 -10.40053,-1.20006 -15.200775,-16.40084 -0.8000408,-20.00102 7.2003678,-7.60039 17.200876,-1.20006 17.200877,19.601 0.400021,14.40073 z"
       id="path2570" /><path
       style="fill:#f2f2f2;fill-opacity:1;stroke-width:0.264583"
       d="m 63.603245,155.60794 8.400428,-5.60029 5.600285,-10.80055 -4.400225,-26.40135 -13.600692,-10.80055 -17.600898,6.00031 -3.600185,14.00071 8.00041,25.20129 9.200467,5.60029 z"
       id="path2572" /><path
       style="fill:#f2f2f2;fill-opacity:1;stroke-width:0.264583"
       d="m 98.004999,154.40788 -6.400326,-8.00041 -2.400123,-8.00041 V 117.606 l 12.00061,-14.40074 19.601,1.60009 8.80045,15.20077 -1.60008,21.20108 -10.40053,9.60049 z"
       id="path2574" /><path
       style="fill:#f2f2f2;fill-opacity:1;stroke-width:0.264583"
       d="m 124.00633,189.20965 -2.40013,-11.20057 -0.80004,-12.40063 16.40084,-19.601 12.40063,-2.0001 12.40063,10.40053 0.40002,17.20087 -12.80065,16.80086 -13.20067,2.40012 z"
       id="path2576" /><path
       style="fill:#f2f2f2;fill-opacity:1;stroke-width:0.264583"
       d="m 85.604367,235.61202 -28.801469,9.20047 -23.601204,-7.20037 8.000407,-28.00143 14.800755,-23.6012 27.201389,-12.80066 30.401555,12.00062 19.20097,24.80126 6.80035,27.20139 -32.80167,6.00031 z"
       id="path2578" /><rect
       style="fill:#f2f2f2;fill-opacity:1;stroke-width:0.264583"
       id="rect491-4"
       width="25.457142"
       height="96.737144"
       x="185.83714"
       y="27.437141" /><rect
       style="fill:#f2f2f2;fill-opacity:1;stroke-width:0.264583"
       id="rect491"
       width="25.457142"
       height="96.737144"
       x="62.794285"
       y="-246.76109"
       transform="rotate(90)" /></g></svg>
